<svg width="28" height="28" viewBox="0 0 28 28" fill="none" xmlns="http://www.w3.org/2000/svg">
<g clip-path="url(#clip0)">
<path fill-rule="evenodd" clip-rule="evenodd" d="M18.5966 6.39001C17.1214 5.9061 15.5825 5.64999 14 5.64999C8.6503 5.64999 3.79892 8.57686 0.219086 13.3309C-0.0730285 13.7204 -0.0730285 14.2645 0.219086 14.654C1.72912 16.6617 3.46541 18.3434 5.36991 19.6167L8.6126 16.374C8.24252 15.5377 8.06134 14.5989 8.12335 13.6115C8.30664 10.6789 10.6836 8.30193 13.6162 8.11864C14.6029 8.05658 15.5419 8.23771 16.3787 8.60799L18.5966 6.39001ZM14.1614 10.8252C14.0424 10.8194 13.9216 10.8202 13.7995 10.8279C12.2187 10.931 10.9357 12.2082 10.8383 13.7891C10.8302 13.9115 10.8292 14.0326 10.8347 14.1519L14.1614 10.8252ZM16.9812 15.0765L15.0847 16.973C15.9587 16.6529 16.6587 15.9542 16.9812 15.0765ZM12.3958 19.662C13.0224 19.8393 13.6913 19.9155 14.3838 19.8719C17.3106 19.6829 19.6876 17.3059 19.8766 14.3791C19.9202 13.6862 19.8439 13.0174 19.6667 12.391L23.2504 8.80732C24.9126 10.0199 26.4364 11.549 27.7809 13.3366C28.073 13.7261 28.073 14.2702 27.7809 14.6597C24.2011 19.4137 19.3497 22.3406 14 22.3406C12.7057 22.3406 11.4406 22.1693 10.2156 21.8421L12.3958 19.662Z" fill="#363636" fill-opacity="0.5"/>
<line x1="3" y1="25.3345" x2="26.3345" y2="2" stroke="#363636" stroke-opacity="0.5" stroke-width="3" stroke-linecap="round"/>
</g>
<defs>
<clipPath id="clip0">
<rect width="28" height="28" fill="white"/>
</clipPath>
</defs>
</svg>
