<svg width="40" height="40" viewBox="0 0 40 40" fill="none" xmlns="http://www.w3.org/2000/svg">
<g clip-path="url(#clip0)">
<path d="M37.7779 2.1875H2.22209C0.997721 2.1875 0 2.86097 0 3.68743V6.68757C0 7.51403 0.997721 8.1875 2.22209 8.1875H37.7779C39.0023 8.1875 40 7.51403 40 6.68757V3.68743C40 2.86097 39.0023 2.1875 37.7779 2.1875Z" fill="#F8F7FF"/>
<path d="M37.7779 15.5209H2.22209C0.997721 15.5209 0 16.1943 0 17.0208V20.0209C0 20.8474 0.997721 21.5209 2.22209 21.5209H37.7779C39.0023 21.5209 40 20.8474 40 20.0209V17.0208C40 16.1943 39.0023 15.5209 37.7779 15.5209Z" fill="#F8F7FF"/>
<path d="M37.7779 28.8541H2.22209C0.997721 28.8541 0 29.5276 0 30.3541V33.3542C0 34.1807 0.997721 34.8541 2.22209 34.8541H37.7779C39.0023 34.8541 40 34.1807 40 33.3542V30.3541C40 29.5276 39.0023 28.8541 37.7779 28.8541Z" fill="#F8F7FF"/>
</g>
<defs>
<clipPath id="clip0">
<rect width="40" height="40" fill="white"/>
</clipPath>
</defs>
</svg>
