<svg width="30" height="30" viewBox="0 0 30 30" fill="none" xmlns="http://www.w3.org/2000/svg">
<path fill-rule="evenodd" clip-rule="evenodd" d="M29.1863 15.845C29.7012 16.3613 30 17.0613 30 17.8125C30 18.8963 29.38 19.8488 28.4575 20.3138C28.6488 20.6963 28.75 21.12 28.75 21.5625C28.75 22.6463 28.1287 23.6 27.2063 24.0638C27.4913 24.6338 27.575 25.29 27.4312 25.9425C27.1513 27.2075 25.96 28.125 24.5988 28.125H13.125C12.2562 28.125 10.8562 27.8438 9.81621 27.3088C9.38121 28.5125 8.22621 29.375 6.87498 29.375H3.12498C1.40127 29.375 0 27.9738 0 26.25V16.25C0 14.5263 1.40127 13.125 3.12498 13.125H9.37494C9.71994 13.125 9.99996 13.405 9.99996 13.75V13.9887L10.1487 13.9125L13.75 6.11374V1.87501C13.75 1.68505 13.8362 1.50505 13.985 1.38628L13.9863 1.38524C14.0413 1.3425 14.9648 0.625031 16.25 0.625031C17.6963 0.625031 20 2.91376 20 5.62501C20 7.33501 19.3875 9.46372 19.005 10.625H26.7262C28.4087 10.625 29.84 11.87 29.9862 13.4588C30.0675 14.35 29.77 15.2063 29.1863 15.845ZM26.8413 19.7787C26.9187 19.5475 27.1225 19.3838 27.3638 19.355C28.1538 19.2638 28.75 18.6012 28.75 17.8125C28.75 17.23 28.4225 16.7001 27.8937 16.4313C27.6938 16.3275 27.5637 16.125 27.555 15.8988C27.5463 15.6726 27.66 15.46 27.8512 15.3426C28.465 14.9638 28.8075 14.2863 28.7412 13.5738C28.6537 12.6213 27.7687 11.875 26.7262 11.875H18.125C17.92 11.875 17.7275 11.7738 17.61 11.605C17.4937 11.4351 17.4688 11.2188 17.5413 11.0275C17.5415 11.0269 17.5423 11.0248 17.5436 11.0213C17.6031 10.8613 18.75 7.77807 18.75 5.62501C18.75 3.57751 16.935 1.87501 16.25 1.87501C15.7113 1.87501 15.26 2.07001 14.9999 2.21374V6.24997C14.9999 6.33997 14.98 6.42997 14.9425 6.51247L11.1925 14.6375C11.1325 14.7662 11.0312 14.8712 10.9049 14.9337L10 15.3862V25.9623C10.7049 26.4797 12.2003 26.875 13.125 26.875H24.5988C25.3788 26.875 26.0563 26.37 26.2101 25.6725C26.3338 25.1125 26.1688 24.5687 25.7576 24.1812C25.5801 24.0137 25.5163 23.76 25.5926 23.5288C25.67 23.2975 25.8738 23.1338 26.1151 23.105C26.9038 23.0138 27.5 22.3512 27.5 21.5625C27.5 21.1325 27.3238 20.73 27.0063 20.4312C26.8288 20.2637 26.765 20.01 26.8413 19.7787ZM8.75 26.245C8.74999 26.2467 8.74998 26.2484 8.74998 26.25C8.74998 27.2838 7.90875 28.125 6.87498 28.125H3.12498C2.09121 28.125 1.24998 27.2838 1.24998 26.25V16.25C1.24998 15.2162 2.09121 14.375 3.12498 14.375H8.74998V15C8.74998 15.0017 8.74999 15.0033 8.75 15.005V26.245Z" fill="#363636"/>
</svg>
