<svg width="320" height="320" viewBox="0 0 320 320" fill="none" xmlns="http://www.w3.org/2000/svg">
<path d="M142.838 200.498H118.646L116.774 155.282C116.486 146.354 116.15 139.586 115.766 134.978H115.334C114.182 138.626 112.838 144.29 111.302 151.97L110.582 155.57L100.646 200.498H76.4544L68.1024 160.034L66.6624 152.834C64.6464 143.906 63.2544 137.954 62.4864 134.978H62.0544C61.6704 139.778 61.3344 147.602 61.0464 158.45C60.9504 159.122 60.9024 160.178 60.9024 161.618L59.6064 200.498H35.2704L38.7264 118.418H79.9104L86.9664 153.842L88.6944 163.346C89.4624 160.37 90.1824 157.058 90.8544 153.41L97.4784 118.418H139.526L142.838 200.498ZM194.425 183.218C196.825 183.218 201.289 182.978 207.817 182.498C208.681 182.498 210.265 182.402 212.569 182.21L214.729 197.042C207.337 200.498 197.737 202.226 185.929 202.226C174.889 202.226 166.393 199.442 160.441 193.874C154.585 188.306 151.657 179.906 151.657 168.674C151.657 162.914 152.377 157.346 153.817 151.97C155.353 146.594 157.081 142.85 159.001 140.738C161.017 138.626 164.761 136.802 170.233 135.266C175.705 133.73 181.129 132.962 186.505 132.962C195.145 132.962 201.625 134.498 205.945 137.57C210.265 140.642 213.097 144.914 214.441 150.386C215.785 155.762 216.457 163.01 216.457 172.13C209.929 172.514 203.545 172.706 197.305 172.706H176.857C176.857 175.778 177.481 178.082 178.729 179.618C180.073 181.154 181.945 182.162 184.345 182.642C186.745 183.026 190.105 183.218 194.425 183.218ZM178.297 150.098C177.721 150.386 177.289 151.634 177.001 153.842C176.713 156.05 176.521 158.546 176.425 161.33H183.913C188.425 161.33 191.689 161.282 193.705 161.186C193.705 156.578 193.033 153.314 191.689 151.394C190.441 149.474 188.233 148.514 185.065 148.514C182.473 148.514 180.217 149.042 178.297 150.098ZM250.036 140.594C250.036 142.61 251.044 144.194 253.06 145.346C255.172 146.498 258.436 147.746 262.852 149.09C268.132 150.818 272.452 152.498 275.812 154.13C279.268 155.762 282.244 158.306 284.74 161.762C287.332 165.218 288.628 169.73 288.628 175.298C288.628 193.154 277.012 202.082 253.78 202.082C249.94 202.082 245.236 201.746 239.668 201.074C234.196 200.402 229.204 199.538 224.692 198.482C224.884 196.466 225.268 193.538 225.844 189.698C226.516 185.762 227.14 182.834 227.716 180.914C231.076 181.394 236.116 181.97 242.836 182.642C249.652 183.314 254.788 183.65 258.244 183.65C260.26 183.65 261.46 183.506 261.844 183.218C262.42 182.834 262.852 182.21 263.14 181.346C263.524 180.386 263.716 179.57 263.716 178.898C263.716 176.978 262.804 175.538 260.98 174.578C259.156 173.522 256.036 172.274 251.62 170.834C246.34 169.202 241.972 167.522 238.516 165.794C235.06 164.066 232.036 161.378 229.444 157.73C226.852 154.082 225.556 149.282 225.556 143.33C225.556 139.106 226.516 134.978 228.436 130.946C230.356 126.818 232.324 124.034 234.34 122.594C235.876 121.538 239.044 120.53 243.844 119.57C248.644 118.61 253.156 118.13 257.38 118.13C268.132 118.13 276.916 119.138 283.732 121.154C283.636 123.074 283.3 125.714 282.724 129.074C282.244 132.434 281.716 135.506 281.14 138.29L277.828 138.146C265.348 137.282 257.38 136.85 253.924 136.85C252.484 136.85 251.668 136.898 251.476 136.994C251.092 137.186 250.756 137.618 250.468 138.29C250.18 138.962 250.036 139.73 250.036 140.594Z" fill="#FBF9FF"/>
<path fill-rule="evenodd" clip-rule="evenodd" d="M320 158.964V96V86H310H236.613V96H310V158.964H320Z" fill="#009FB7"/>
<path fill-rule="evenodd" clip-rule="evenodd" d="M0.000572205 129.778H0.00012207V139.778L0.00012207 224.013V234.013H10.0001H83.3877V224.013H10.0001L10.0001 161.049H0.000572205V129.778Z" fill="#009FB7"/>
<circle cx="260.587" cy="105.805" r="5.21172" fill="#009FB7"/>
<path d="M276.35 108.339H273.704L273.228 106.323C273.209 106.248 273.176 106.122 273.13 105.945C273.092 105.758 273.046 105.623 272.99 105.539C272.934 105.445 272.854 105.385 272.752 105.357C272.49 105.366 272.108 105.371 271.604 105.371V108.339H269.084V100.429C270.213 100.345 271.268 100.303 272.248 100.303C273.134 100.303 273.853 100.377 274.404 100.527C274.954 100.667 275.365 100.914 275.636 101.269C275.916 101.614 276.056 102.09 276.056 102.697C276.056 103.266 275.925 103.714 275.664 104.041C275.402 104.358 274.982 104.549 274.404 104.615V104.699C274.73 104.727 275.001 104.834 275.216 105.021C275.44 105.198 275.589 105.427 275.664 105.707L276.35 108.339ZM271.604 103.789C271.688 103.798 271.851 103.803 272.094 103.803C272.812 103.803 273.232 103.742 273.354 103.621C273.466 103.509 273.522 103.247 273.522 102.837C273.522 102.454 273.419 102.193 273.214 102.053C273.018 101.913 272.691 101.843 272.234 101.843C272.131 101.843 271.921 101.852 271.604 101.871V103.789ZM277.135 100.359H282.945V102.039H279.655V103.495H282.427V105.007H279.655V106.631H282.931V108.339H277.135V100.359ZM290.094 108.073C289.748 108.222 289.347 108.329 288.89 108.395C288.432 108.46 288.008 108.493 287.616 108.493C286.346 108.493 285.352 108.161 284.634 107.499C283.915 106.836 283.556 105.819 283.556 104.447C283.556 103.047 283.934 102.001 284.69 101.311C285.446 100.611 286.51 100.261 287.882 100.261C288.535 100.261 289.216 100.349 289.926 100.527C289.926 100.713 289.907 100.993 289.87 101.367C289.832 101.731 289.795 101.987 289.758 102.137H288.876C288.232 102.137 287.723 102.151 287.35 102.179C286.986 102.197 286.766 102.239 286.692 102.305C286.552 102.435 286.444 102.701 286.37 103.103C286.295 103.495 286.258 103.873 286.258 104.237C286.258 104.871 286.337 105.361 286.496 105.707C286.654 106.043 286.855 106.267 287.098 106.379C287.331 106.491 287.718 106.547 288.26 106.547C288.689 106.547 289.249 106.509 289.94 106.435L290.094 108.073Z" fill="#FBF9FF"/>
</svg>
