<svg width="500" height="500" viewBox="0 0 500 500" fill="none" xmlns="http://www.w3.org/2000/svg">
<path d="M233.717 283.091H209.525L207.653 237.875C207.365 228.947 207.029 222.179 206.645 217.571H206.213C205.061 221.219 203.717 226.883 202.181 234.563L201.461 238.163L191.525 283.091H167.333L158.981 242.627L157.541 235.427C155.525 226.499 154.133 220.547 153.365 217.571H152.933C152.549 222.371 152.213 230.195 151.925 241.043C151.829 241.715 151.781 242.771 151.781 244.211L150.485 283.091H126.149L129.605 201.011H170.789L177.845 236.435L179.573 245.939C180.341 242.963 181.061 239.651 181.733 236.003L188.357 201.011H230.405L233.717 283.091ZM285.304 265.811C287.704 265.811 292.168 265.571 298.696 265.091C299.56 265.091 301.144 264.995 303.448 264.803L305.608 279.635C298.216 283.091 288.616 284.819 276.808 284.819C265.768 284.819 257.272 282.035 251.32 276.467C245.464 270.899 242.536 262.499 242.536 251.267C242.536 245.507 243.256 239.939 244.696 234.563C246.232 229.187 247.96 225.443 249.88 223.331C251.896 221.219 255.64 219.395 261.112 217.859C266.584 216.323 272.008 215.555 277.384 215.555C286.024 215.555 292.504 217.091 296.824 220.163C301.144 223.235 303.976 227.507 305.32 232.979C306.664 238.355 307.336 245.603 307.336 254.723C300.808 255.107 294.424 255.299 288.184 255.299H267.736C267.736 258.371 268.36 260.675 269.608 262.211C270.952 263.747 272.824 264.755 275.224 265.235C277.624 265.619 280.984 265.811 285.304 265.811ZM269.176 232.691C268.6 232.979 268.168 234.227 267.88 236.435C267.592 238.643 267.4 241.139 267.304 243.923H274.792C279.304 243.923 282.568 243.875 284.584 243.779C284.584 239.171 283.912 235.907 282.568 233.987C281.32 232.067 279.112 231.107 275.944 231.107C273.352 231.107 271.096 231.635 269.176 232.691ZM340.915 223.187C340.915 225.203 341.923 226.787 343.939 227.939C346.051 229.091 349.315 230.339 353.731 231.683C359.011 233.411 363.331 235.091 366.691 236.723C370.147 238.355 373.123 240.899 375.619 244.355C378.211 247.811 379.507 252.323 379.507 257.891C379.507 275.747 367.891 284.675 344.659 284.675C340.819 284.675 336.115 284.339 330.547 283.667C325.075 282.995 320.083 282.131 315.571 281.075C315.763 279.059 316.147 276.131 316.723 272.291C317.395 268.355 318.019 265.427 318.595 263.507C321.955 263.987 326.995 264.563 333.715 265.235C340.531 265.907 345.667 266.243 349.123 266.243C351.139 266.243 352.339 266.099 352.723 265.811C353.299 265.427 353.731 264.803 354.019 263.939C354.403 262.979 354.595 262.163 354.595 261.491C354.595 259.571 353.683 258.131 351.859 257.171C350.035 256.115 346.915 254.867 342.499 253.427C337.219 251.795 332.851 250.115 329.395 248.387C325.939 246.659 322.915 243.971 320.323 240.323C317.731 236.675 316.435 231.875 316.435 225.923C316.435 221.699 317.395 217.571 319.315 213.539C321.235 209.411 323.203 206.627 325.219 205.187C326.755 204.131 329.923 203.123 334.723 202.163C339.523 201.203 344.035 200.723 348.259 200.723C359.011 200.723 367.795 201.731 374.611 203.747C374.515 205.667 374.179 208.307 373.603 211.667C373.123 215.027 372.595 218.099 372.019 220.883L368.707 220.739C356.227 219.875 348.259 219.443 344.803 219.443C343.363 219.443 342.547 219.491 342.355 219.587C341.971 219.779 341.635 220.211 341.347 220.883C341.059 221.555 340.915 222.323 340.915 223.187Z" fill="#363636"/>
<path fill-rule="evenodd" clip-rule="evenodd" d="M499.999 296.866H499.999V286.866V144V134H489.999H369.706V144H489.999V248.007H499.999V296.866Z" fill="#009FB7"/>
<path fill-rule="evenodd" clip-rule="evenodd" d="M0.000244141 202.404H-0.000183105V212.404L-0.000183105 355.27V365.27H9.99982H130.293V355.27H9.99982L9.99982 251.264H0.000244141L0.000244141 202.404Z" fill="#009FB7"/>
<circle cx="407.166" cy="164.945" r="8.14332" fill="#009FB7"/>
<path d="M433.483 168.029H430.837L430.361 166.013C430.342 165.939 430.31 165.813 430.263 165.635C430.226 165.449 430.179 165.313 430.123 165.229C430.067 165.136 429.988 165.075 429.885 165.047C429.624 165.057 429.241 165.061 428.737 165.061V168.029H426.217V160.119C427.346 160.035 428.401 159.993 429.381 159.993C430.268 159.993 430.986 160.068 431.537 160.217C432.088 160.357 432.498 160.605 432.769 160.959C433.049 161.305 433.189 161.781 433.189 162.387C433.189 162.957 433.058 163.405 432.797 163.731C432.536 164.049 432.116 164.24 431.537 164.305V164.389C431.864 164.417 432.134 164.525 432.349 164.711C432.573 164.889 432.722 165.117 432.797 165.397L433.483 168.029ZM428.737 163.479C428.821 163.489 428.984 163.493 429.227 163.493C429.946 163.493 430.366 163.433 430.487 163.311C430.599 163.199 430.655 162.938 430.655 162.527C430.655 162.145 430.552 161.883 430.347 161.743C430.151 161.603 429.824 161.533 429.367 161.533C429.264 161.533 429.054 161.543 428.737 161.561V163.479ZM434.268 160.049H440.078V161.729H436.788V163.185H439.56V164.697H436.788V166.321H440.064V168.029H434.268V160.049ZM447.227 167.763C446.881 167.913 446.48 168.02 446.023 168.085C445.565 168.151 445.141 168.183 444.749 168.183C443.479 168.183 442.485 167.852 441.767 167.189C441.048 166.527 440.689 165.509 440.689 164.137C440.689 162.737 441.067 161.692 441.823 161.001C442.579 160.301 443.643 159.951 445.015 159.951C445.668 159.951 446.349 160.04 447.059 160.217C447.059 160.404 447.04 160.684 447.003 161.057C446.965 161.421 446.928 161.678 446.891 161.827H446.009C445.365 161.827 444.856 161.841 444.483 161.869C444.119 161.888 443.899 161.93 443.825 161.995C443.685 162.126 443.577 162.392 443.503 162.793C443.428 163.185 443.391 163.563 443.391 163.927C443.391 164.562 443.47 165.052 443.629 165.397C443.787 165.733 443.988 165.957 444.231 166.069C444.464 166.181 444.851 166.237 445.393 166.237C445.822 166.237 446.382 166.2 447.073 166.125L447.227 167.763Z" fill="#363636"/>
</svg>
