<svg width="30" height="30" viewBox="0 0 30 30" fill="none" xmlns="http://www.w3.org/2000/svg">
<path fill-rule="evenodd" clip-rule="evenodd" d="M29.1863 15.845C29.7012 16.3613 30 17.0613 30 17.8125C30 18.8963 29.38 19.8488 28.4575 20.3138C28.6488 20.6963 28.75 21.12 28.75 21.5625C28.75 22.6463 28.1288 23.6 27.2063 24.0638C27.4913 24.6338 27.575 25.29 27.4312 25.9425C27.1513 27.2075 25.96 28.125 24.5988 28.125H13.125C12.2562 28.125 10.8562 27.8438 9.81621 27.3088C9.38121 28.5125 8.22621 29.375 6.87498 29.375H3.12498C1.40127 29.375 0 27.9738 0 26.25V16.25C0 14.5263 1.40127 13.125 3.12498 13.125H9.37494C9.71994 13.125 9.99996 13.405 9.99996 13.75V13.9887L10.1487 13.9125L13.75 6.11374V1.87501C13.75 1.68505 13.8362 1.50505 13.985 1.38628L13.9863 1.38524C14.0413 1.3425 14.9648 0.625031 16.25 0.625031C17.6963 0.625031 20 2.91376 20 5.62501C20 7.33501 19.3875 9.46372 19.005 10.625H26.7262C28.4087 10.625 29.84 11.87 29.9862 13.4588C30.0675 14.35 29.77 15.2063 29.1863 15.845Z" fill="#363636"/>
</svg>
