<svg width="45" height="45" viewBox="0 0 45 45" fill="none" xmlns="http://www.w3.org/2000/svg">
<path d="M31.9572 27.6408C31.5542 27.2798 30.935 27.315 30.5759 27.7171C28.5353 29.9974 25.5927 31.3043 22.5004 31.3043C19.4091 31.3043 16.4655 29.9974 14.4248 27.7171C14.0639 27.315 13.4466 27.2798 13.0435 27.6408C12.6405 28.0008 12.6072 28.619 12.9672 29.0221C15.3787 31.7162 18.8534 33.2609 22.5004 33.2609C26.1483 33.2609 29.6231 31.7152 32.0336 29.0221C32.3936 28.619 32.3593 28.0008 31.9572 27.6408Z" fill="#F8F7FF"/>
<path d="M22.5 0C10.0937 0 0 10.0937 0 22.5C0 34.9063 10.0937 45 22.5 45C34.9063 45 45 34.9063 45 22.5C45 10.0937 34.9063 0 22.5 0ZM22.5 43.0435C11.1717 43.0435 1.95652 33.8283 1.95652 22.5C1.95652 11.1717 11.1717 1.95652 22.5 1.95652C33.8283 1.95652 43.0435 11.1717 43.0435 22.5C43.0435 33.8283 33.8283 43.0435 22.5 43.0435Z" fill="#F8F7FF"/>
<path d="M30.3259 15.6522C27.6288 15.6522 25.4346 17.8465 25.4346 20.5435C25.4346 21.0835 25.8728 21.5218 26.4128 21.5218C26.9528 21.5218 27.3911 21.0835 27.3911 20.5435C27.3911 18.9255 28.7078 17.6087 30.3259 17.6087C31.9439 17.6087 33.2607 18.9255 33.2607 20.5435C33.2607 21.0835 33.6989 21.5218 34.2389 21.5218C34.7789 21.5218 35.2172 21.0835 35.2172 20.5435C35.2172 17.8465 33.0229 15.6522 30.3259 15.6522Z" fill="#F8F7FF"/>
<path d="M17.6083 20.5435C17.6083 21.0835 18.0466 21.5218 18.5866 21.5218C19.1266 21.5218 19.5648 21.0835 19.5648 20.5435C19.5648 17.8465 17.3706 15.6522 14.6735 15.6522C11.9765 15.6522 9.78223 17.8465 9.78223 20.5435C9.78223 21.0835 10.2205 21.5218 10.7605 21.5218C11.3005 21.5218 11.7387 21.0835 11.7387 20.5435C11.7387 18.9255 13.0555 17.6087 14.6735 17.6087C16.2916 17.6087 17.6083 18.9255 17.6083 20.5435Z" fill="#F8F7FF"/>
</svg>
