<svg width="28" height="28" viewBox="0 0 28 28" fill="none" xmlns="http://www.w3.org/2000/svg">
<g clip-path="url(#clip0)">
<path d="M24.7916 25.6849H3.2084C1.43854 25.6849 0 24.2464 0 22.4765V7.89313C0 6.12326 1.43854 4.68494 3.2084 4.68494H10.2084C10.6914 4.68494 11.0834 5.07693 11.0834 5.55994C11.0834 6.04294 10.6914 6.43494 10.2084 6.43494H3.2084C2.40454 6.43494 1.75 7.08926 1.75 7.89313V22.4765C1.75 23.2804 2.40454 23.9349 3.2084 23.9349H24.7916C25.5955 23.9349 26.25 23.2804 26.25 22.4765V7.89313C26.25 7.08926 25.5955 6.43494 24.7916 6.43494H17.7916C17.3086 6.43494 16.9166 6.04294 16.9166 5.55994C16.9166 5.07693 17.3086 4.68494 17.7916 4.68494H24.7916C26.5615 4.68494 28 6.12326 28 7.89313V22.4765C28 24.2464 26.5615 25.6849 24.7916 25.6849Z" fill="#363636" fill-opacity="0.5"/>
<path d="M16.6251 8.76816H11.3751C10.2493 8.76816 9.3335 7.85236 9.3335 6.72656V4.39316C9.3335 3.26736 10.2493 2.35156 11.3751 2.35156H16.6251C17.7509 2.35156 18.6667 3.26736 18.6667 4.39316V6.72656C18.6667 7.85236 17.7509 8.76816 16.6251 8.76816ZM11.3751 4.10156C11.214 4.10156 11.0835 4.2323 11.0835 4.39316V6.72656C11.0835 6.88763 11.214 7.01816 11.3751 7.01816H16.6251C16.7862 7.01816 16.9167 6.88763 16.9167 6.72656V4.39316C16.9167 4.2323 16.7862 4.10156 16.6251 4.10156H11.3751Z" fill="#363636" fill-opacity="0.5"/>
<path d="M8.75009 16.3516C7.14236 16.3516 5.8335 15.0425 5.8335 13.435C5.8335 11.8273 7.14236 10.5182 8.75009 10.5182C10.3578 10.5182 11.6667 11.8273 11.6667 13.435C11.6667 15.0425 10.3578 16.3516 8.75009 16.3516ZM8.75009 12.2682C8.1073 12.2682 7.5835 12.792 7.5835 13.435C7.5835 14.0778 8.1073 14.6016 8.75009 14.6016C9.39288 14.6016 9.91669 14.0778 9.91669 13.435C9.91669 12.792 9.39288 12.2682 8.75009 12.2682Z" fill="#363636" fill-opacity="0.5"/>
<path d="M13.125 22.185C12.642 22.185 12.25 21.793 12.25 21.31V20.7266C12.25 19.9227 11.5955 19.2682 10.7916 19.2682H6.7084C5.90454 19.2682 5.25 19.9227 5.25 20.7266V21.31C5.25 21.793 4.858 22.185 4.375 22.185C3.892 22.185 3.5 21.793 3.5 21.31V20.7266C3.5 18.9567 4.93854 17.5182 6.7084 17.5182H10.7916C12.5615 17.5182 14 18.9567 14 20.7266V21.31C14 21.793 13.608 22.185 13.125 22.185Z" fill="#363636" fill-opacity="0.5"/>
<path d="M23.6251 12.8516H17.2085C16.7255 12.8516 16.3335 12.4596 16.3335 11.9766C16.3335 11.4936 16.7255 11.1016 17.2085 11.1016H23.6251C24.1081 11.1016 24.5001 11.4936 24.5001 11.9766C24.5001 12.4596 24.1081 12.8516 23.6251 12.8516Z" fill="#363636" fill-opacity="0.5"/>
<path d="M23.6251 17.5182H17.2085C16.7255 17.5182 16.3335 17.1262 16.3335 16.6432C16.3335 16.1602 16.7255 15.7682 17.2085 15.7682H23.6251C24.1081 15.7682 24.5001 16.1602 24.5001 16.6432C24.5001 17.1262 24.1081 17.5182 23.6251 17.5182Z" fill="#363636" fill-opacity="0.5"/>
<path d="M23.6251 22.1849H17.2085C16.7255 22.1849 16.3335 21.7929 16.3335 21.3099C16.3335 20.8269 16.7255 20.4349 17.2085 20.4349H23.6251C24.1081 20.4349 24.5001 20.8269 24.5001 21.3099C24.5001 21.7929 24.1081 22.1849 23.6251 22.1849Z" fill="#363636" fill-opacity="0.5"/>
</g>
<defs>
<clipPath id="clip0">
<rect width="28" height="28" fill="white"/>
</clipPath>
</defs>
</svg>
