<svg width="28" height="28" viewBox="0 0 28 28" fill="none" xmlns="http://www.w3.org/2000/svg">
<path d="M14 0C6.2805 0 0 6.2805 0 14C0 21.7195 6.2805 28 14 28C16.4618 28 18.8825 27.3523 21.0017 26.1261L19.25 23.0961C17.6624 24.0146 15.8465 24.5 14 24.5C8.20998 24.5 3.49998 19.79 3.49998 14C3.49998 8.20998 8.20998 3.49998 14 3.49998C19.79 3.49998 24.5 8.20998 24.5 14V15.5244C24.5 16.6694 23.7643 17.5 22.75 17.5C21.7852 17.5 21 16.7147 21 15.75V8.74999H18.5808C17.3497 7.67448 15.7592 6.99997 14 6.99997C10.1402 6.99997 6.99997 10.1402 6.99997 14C6.99997 17.8597 10.1402 21 14 21C15.838 21 17.4998 20.2732 18.7501 19.1103C19.7139 20.2557 21.1394 21 22.75 21C25.6937 21 28 18.5947 28 15.5244V14C28 6.2805 21.7195 0 14 0V0ZM14 17.5C12.0697 17.5 10.5 15.9303 10.5 14C10.5 12.0697 12.0697 10.5 14 10.5C15.9303 10.5 17.5 12.0697 17.5 14C17.5 15.9303 15.9303 17.5 14 17.5Z" fill="#F8F7FF" fill-opacity="0.5"/>
</svg>
