<svg width="25" height="25" viewBox="0 0 25 25" fill="none" xmlns="http://www.w3.org/2000/svg">
<g clip-path="url(#clip0)">
<path d="M22.0342 17.3122C25.9894 13.357 25.9893 6.92136 22.0342 2.96615C18.079 -0.989053 11.6435 -0.989053 7.68834 2.96615C4.33289 6.32161 3.82471 11.312 6.16243 15.209C6.16243 15.209 6.33035 15.4907 6.10356 15.7173C4.80974 17.0111 0.928069 20.8928 0.928069 20.8928C-0.102067 21.9229 -0.347299 23.3633 0.566221 24.277L0.723508 24.4341C1.63703 25.3478 3.0775 25.1026 4.10755 24.0725C4.10755 24.0725 7.98101 20.1989 9.27217 18.9079C9.50983 18.6702 9.79146 18.8381 9.79146 18.8381C13.6884 21.1758 18.6788 20.6677 22.0342 17.3122ZM9.56113 15.4393C6.63864 12.5168 6.63872 7.76167 9.56121 4.83918C12.4837 1.91677 17.2389 1.91669 20.1613 4.83918C23.0838 7.76159 23.0838 12.5168 20.1613 15.4393C17.2388 18.3617 12.4837 18.3617 9.56113 15.4393Z" fill="#363636"/>
<path d="M10.2079 9.53738C10.0719 9.53738 9.93364 9.51064 9.80035 9.45434C9.26793 9.229 9.01883 8.61467 9.24417 8.08217C10.6605 4.73517 14.5356 3.16448 17.8825 4.58079C18.415 4.80613 18.6641 5.42045 18.4387 5.95296C18.2133 6.48546 17.5991 6.7344 17.0665 6.50914C14.783 5.54287 12.1388 6.61456 11.1726 8.89808C11.0036 9.29746 10.6159 9.53738 10.2079 9.53738Z" fill="#363636"/>
</g>
<defs>
<clipPath id="clip0">
<rect width="25" height="25" fill="white"/>
</clipPath>
</defs>
</svg>
