<svg width="30" height="30" viewBox="0 0 30 30" fill="none" xmlns="http://www.w3.org/2000/svg">
<g clip-path="url(#clip0)">
<path d="M26.5631 29.9999H3.43829C1.54202 29.9999 0.000976562 28.4587 0.000976562 26.5626V8.43765C0.000976562 6.54138 1.54202 5.00034 3.43829 5.00034H7.81332C8.33082 5.00034 8.75081 5.42033 8.75081 5.93783C8.75081 6.45532 8.33082 6.87532 7.81332 6.87532H3.43829C2.57702 6.87532 1.87596 7.57638 1.87596 8.43765V26.5626C1.87596 27.4237 2.57702 28.125 3.43829 28.125H26.5631C27.4244 28.125 28.1257 27.4237 28.1257 26.5626V15.9376C28.1257 15.4201 28.5457 15.0001 29.0632 15.0001C29.5807 15.0001 30.0007 15.4201 30.0007 15.9376V26.5626C30.0007 28.4587 28.4594 29.9999 26.5631 29.9999Z" fill="#363636"/>
<path d="M8.43709 19.9839C8.36843 19.9839 8.29954 19.9764 8.23087 19.9588C7.80722 19.8601 7.50098 19.4976 7.50098 19.0627V17.1877C7.50098 10.4678 12.9685 5.00033 19.6884 5.00033H20.0008V0.937721C20.0008 0.555263 20.2333 0.211486 20.5883 0.0677499C20.9419 -0.0746132 21.3482 0.0114455 21.6132 0.287703L29.7382 8.72512C30.0882 9.08766 30.0882 9.66261 29.7382 10.0252L21.6132 18.4626C21.3482 18.7388 20.9394 18.824 20.5883 18.6825C20.2333 18.5388 20.0008 18.195 20.0008 17.8126V13.7502H18.5158C14.5834 13.7502 11.0495 15.9351 9.29219 19.4513C9.13083 19.7763 8.79209 19.9839 8.43709 19.9839ZM19.6884 6.87531C14.4383 6.87531 10.091 10.8189 9.45469 15.9C11.727 13.3652 14.9858 11.8752 18.5158 11.8752H20.9383C21.4558 11.8752 21.8758 12.2952 21.8758 12.8127V15.4876L27.7619 9.37514L21.8758 3.26268V5.93782C21.8758 6.45532 21.4558 6.87531 20.9383 6.87531H19.6884Z" fill="#363636"/>
</g>
<defs>
<clipPath id="clip0">
<rect width="30" height="30" fill="white"/>
</clipPath>
</defs>
</svg>
