<svg width="15" height="15" viewBox="0 0 15 15" fill="none" xmlns="http://www.w3.org/2000/svg">
<g clip-path="url(#clip0)">
<path d="M14.635 8.54313C14.4815 8.50477 14.3281 8.54313 14.1938 8.63903C13.6951 9.06101 13.1197 9.40627 12.4867 9.63644C11.8921 9.86661 11.24 9.98169 10.5495 9.98169C8.99582 9.98169 7.57644 9.34872 6.55985 8.33214C5.54327 7.31555 4.9103 5.89617 4.9103 4.34252C4.9103 3.69037 5.02538 3.0574 5.21719 2.48198C5.42818 1.86819 5.73507 1.31195 6.13787 0.832426C6.3105 0.621437 6.27214 0.314543 6.06115 0.141916C5.92688 0.0460114 5.77344 0.00764967 5.61999 0.0460114C3.98962 0.487171 2.57023 1.46539 1.55365 2.76969C0.575426 4.05481 0 5.64682 0 7.3731C0 9.46381 0.843957 11.3627 2.22498 12.7437C3.606 14.1248 5.48572 14.9687 7.59562 14.9687C9.36025 14.9687 10.9906 14.3549 12.2949 13.3383C13.6184 12.3026 14.5774 10.8256 14.9802 9.13773C15.057 8.8692 14.9035 8.60067 14.635 8.54313Z" fill="#F8F7FF"/>
</g>
<defs>
<clipPath id="clip0">
<rect width="15" height="15" fill="#F8F7FF"/>
</clipPath>
</defs>
</svg>
