<svg width="15" height="15" viewBox="0 0 15 15" fill="none" xmlns="http://www.w3.org/2000/svg">
<path d="M7.50001 3.74304C5.42838 3.74304 3.74303 5.42871 3.74303 7.50035C3.74303 9.57198 5.42838 11.2577 7.50001 11.2577C9.57131 11.2577 11.257 9.57232 11.257 7.50035C11.257 5.42838 9.57131 3.74304 7.50001 3.74304Z" fill="#FFC53A"/>
<path d="M7.50001 2.63862C7.09512 2.63862 6.76695 2.31045 6.76695 1.90589V0.73306C6.76695 0.328167 7.09512 0 7.50001 0C7.90491 0 8.23307 0.328167 8.23307 0.73306V1.90589C8.23307 2.31045 7.90457 2.63862 7.50001 2.63862Z" fill="#FFC53A"/>
<path d="M7.50001 12.361C7.09512 12.361 6.76695 12.6892 6.76695 13.0941V14.2666C6.76695 14.6718 7.09512 15 7.50001 15C7.90491 15 8.23307 14.6718 8.23307 14.2666V13.0941C8.23307 12.6892 7.90457 12.361 7.50001 12.361Z" fill="#FFC53A"/>
<path d="M10.9371 4.06258C10.6511 3.77626 10.6511 3.31224 10.9371 3.02593L11.7665 2.19654C12.0525 1.91056 12.5168 1.91056 12.8032 2.19654C13.0895 2.48286 13.0895 2.94721 12.8032 3.23319L11.9738 4.06258C11.6878 4.34889 11.2238 4.34889 10.9371 4.06258Z" fill="#FFC53A"/>
<path d="M4.06257 10.9378C3.77625 10.6511 3.31224 10.6511 3.02592 10.9378L2.19654 11.7668C1.91055 12.0528 1.91022 12.5175 2.19654 12.8035C2.48285 13.0894 2.9472 13.0894 3.23319 12.8035L4.06257 11.9737C4.34889 11.6878 4.34889 11.2234 4.06257 10.9378Z" fill="#FFC53A"/>
<path d="M12.361 7.50003C12.361 7.09513 12.6892 6.76697 13.0941 6.76697H14.2669C14.6718 6.76697 15 7.09513 15 7.50003C15 7.90492 14.6718 8.23276 14.2669 8.23276H13.0941C12.6892 8.23276 12.361 7.90492 12.361 7.50003Z" fill="#FFC53A"/>
<path d="M2.63862 7.50003C2.63862 7.09513 2.31045 6.76697 1.90556 6.76697H0.73306C0.328167 6.76697 0 7.09513 0 7.50003C0 7.90492 0.328167 8.23276 0.73306 8.23276H1.90589C2.31045 8.23276 2.63862 7.90492 2.63862 7.50003Z" fill="#FFC53A"/>
<path d="M10.9371 10.9378C11.2234 10.6518 11.6878 10.6518 11.9738 10.9378L12.8032 11.7671C13.0895 12.0528 13.0895 12.5175 12.8032 12.8035C12.5168 13.0894 12.0528 13.0894 11.7665 12.8035L10.9371 11.9741C10.6508 11.6878 10.6508 11.2237 10.9371 10.9378Z" fill="#FFC53A"/>
<path d="M4.06256 4.06255C4.34887 3.77624 4.34887 3.31222 4.06256 3.02591L3.23317 2.19685C2.94686 1.91054 2.48284 1.91054 2.19653 2.19685C1.91021 2.48284 1.91021 2.94719 2.19653 3.23317L3.02591 4.06255C3.31223 4.3492 3.77624 4.3492 4.06256 4.06255Z" fill="#FFC53A"/>
</svg>
