<svg width="500" height="100" viewBox="0 0 500 100" fill="none" xmlns="http://www.w3.org/2000/svg">
<path fill-rule="evenodd" clip-rule="evenodd" d="M500 0H0V100H500V0ZM86.1309 37.764C87.8311 37.9172 89.2676 39.0677 89.791 40.6876C90.3184 42.3106 89.8281 44.0843 88.5449 45.2074L71.0908 60.5111L76.2373 83.182C76.6143 84.8452 75.9678 86.5689 74.584 87.5718C73.2041 88.5722 71.3672 88.6521 69.9102 87.7756L50 75.8716L30.083 87.7756C29.4102 88.1785 28.6592 88.3823 27.9033 88.3823C27.0264 88.3823 26.1562 88.1089 25.4131 87.5718C24.0303 86.572 23.3828 84.8489 23.7598 83.182L28.9062 60.5111L11.4531 45.2043C10.1689 44.0843 9.68262 42.3075 10.209 40.6876C10.7363 39.0677 12.1689 37.9208 13.8662 37.764L36.96 35.6674L46.0908 14.3002C46.7637 12.7304 48.2969 11.7166 50 11.7166C51.7041 11.7166 53.2373 12.7304 53.9102 14.2966L63.041 35.6674L86.1309 37.764ZM489.792 40.6876C489.268 39.0677 487.831 37.9172 486.131 37.764L463.041 35.6674L453.91 14.2966C453.237 12.7304 451.704 11.7166 450 11.7166C448.297 11.7166 446.764 12.7304 446.091 14.3002L436.96 35.6674L413.866 37.764C412.169 37.9208 410.736 39.0677 410.209 40.6876C409.683 42.3075 410.169 44.0843 411.453 45.2043L428.906 60.5111L423.76 83.182C423.383 84.8489 424.03 86.572 425.413 87.5718C426.156 88.1089 427.026 88.3823 427.903 88.3823C428.659 88.3823 429.41 88.1785 430.083 87.7756L450 75.8716L469.911 87.7756C471.367 88.6521 473.204 88.5721 474.584 87.5718C475.968 86.5689 476.614 84.8452 476.237 83.182L471.091 60.5111L488.545 45.2074C489.828 44.0843 490.318 42.3106 489.792 40.6876ZM186.131 37.764C187.831 37.9172 189.268 39.0677 189.792 40.6876C190.318 42.3106 189.828 44.0843 188.545 45.2074L171.091 60.5111L176.237 83.182C176.614 84.8452 175.968 86.5689 174.584 87.5718C173.204 88.5721 171.367 88.6521 169.911 87.7756L150 75.8716L130.083 87.7756C129.41 88.1785 128.659 88.3823 127.903 88.3823C127.026 88.3823 126.156 88.1089 125.413 87.5718C124.03 86.572 123.383 84.8489 123.76 83.182L128.906 60.5111L111.453 45.2043C110.169 44.0843 109.683 42.3075 110.209 40.6876C110.736 39.0677 112.169 37.9208 113.866 37.764L136.96 35.6674L146.091 14.3002C146.764 12.7304 148.297 11.7166 150 11.7166C151.704 11.7166 153.237 12.7304 153.91 14.2966L163.041 35.6674L186.131 37.764ZM289.792 40.6876C289.268 39.0677 287.831 37.9172 286.131 37.764L263.041 35.6674L253.91 14.2966C253.237 12.7304 251.704 11.7166 250 11.7166C248.297 11.7166 246.764 12.7304 246.091 14.3002L236.96 35.6674L213.866 37.764C212.169 37.9208 210.736 39.0677 210.209 40.6876C209.683 42.3075 210.169 44.0843 211.453 45.2043L228.906 60.5111L223.76 83.182C223.383 84.8489 224.03 86.572 225.413 87.5718C226.156 88.1089 227.026 88.3823 227.903 88.3823C228.659 88.3823 229.41 88.1785 230.083 87.7756L250 75.8716L269.911 87.7756C271.367 88.6521 273.204 88.5721 274.584 87.5718C275.968 86.5689 276.614 84.8452 276.237 83.182L271.091 60.5111L288.545 45.2074C289.828 44.0843 290.318 42.3106 289.792 40.6876ZM386.131 37.764C387.831 37.9172 389.268 39.0677 389.792 40.6876C390.318 42.3106 389.828 44.0843 388.545 45.2074L371.091 60.5111L376.237 83.182C376.614 84.8452 375.968 86.5689 374.584 87.5718C373.204 88.5721 371.367 88.6521 369.911 87.7756L350 75.8716L330.083 87.7756C329.41 88.1785 328.659 88.3823 327.903 88.3823C327.026 88.3823 326.156 88.1089 325.413 87.5718C324.03 86.572 323.383 84.8489 323.76 83.182L328.906 60.5111L311.453 45.2043C310.169 44.0843 309.683 42.3075 310.209 40.6876C310.736 39.0677 312.169 37.9208 313.866 37.764L336.96 35.6674L346.091 14.3002C346.764 12.7304 348.297 11.7166 350 11.7166C351.704 11.7166 353.237 12.7304 353.91 14.2966L363.041 35.6674L386.131 37.764Z" fill="#363636"/>
</svg>
