<svg width="40" height="40" viewBox="0 0 40 40" fill="none" xmlns="http://www.w3.org/2000/svg">
<g clip-path="url(#clip0)">
<path d="M37.5955 17.1924C37.4319 17.1658 37.2662 17.1536 37.1005 17.1557H8.8813L9.49663 16.8695C10.0981 16.5848 10.6453 16.1974 11.1136 15.7247L19.027 7.81135C20.0692 6.81645 20.2443 5.21598 19.442 4.01923C18.5082 2.74395 16.7174 2.46705 15.442 3.40086C15.339 3.47635 15.2411 3.55863 15.149 3.64717L0.839143 17.9571C-0.279175 19.0741 -0.280159 20.8862 0.836907 22.0045C0.837623 22.0052 0.838428 22.0061 0.839143 22.0068L15.149 36.3167C16.2682 37.4327 18.0803 37.4302 19.1965 36.311C19.2843 36.2229 19.3663 36.1292 19.442 36.0305C20.2443 34.8337 20.0692 33.2332 19.027 32.2383L11.128 24.3107C10.708 23.8903 10.2253 23.5378 9.69697 23.266L8.83837 22.8797H36.943C38.405 22.934 39.6877 21.9127 39.9624 20.4756C40.2154 18.9154 39.1558 17.4455 37.5955 17.1924Z" fill="#363636"/>
</g>
<defs>
<clipPath id="clip0">
<rect width="40" height="40" fill="white"/>
</clipPath>
</defs>
</svg>
