<svg width="40" height="40" viewBox="0 0 40 40" fill="none" xmlns="http://www.w3.org/2000/svg">
<g clip-path="url(#clip0)">
<path d="M37.5955 17.1923C37.4319 17.1658 37.2662 17.1535 37.1005 17.1557H8.8813L9.49663 16.8695C10.0981 16.5848 10.6453 16.1973 11.1136 15.7247L19.027 7.81129C20.0692 6.81639 20.2443 5.21592 19.442 4.01917C18.5082 2.74389 16.7174 2.46699 15.442 3.4008C15.339 3.47629 15.2411 3.55857 15.149 3.64711L0.839143 17.957C-0.279175 19.0741 -0.280159 20.8861 0.836907 22.0045C0.837623 22.0052 0.838428 22.006 0.839143 22.0067L15.149 36.3166C16.2682 37.4327 18.0803 37.4302 19.1965 36.311C19.2843 36.2229 19.3663 36.1291 19.442 36.0304C20.2443 34.8336 20.0692 33.2332 19.027 32.2383L11.128 24.3106C10.708 23.8902 10.2253 23.5378 9.69697 23.266L8.83837 22.8796H36.943C38.405 22.9339 39.6877 21.9126 39.9624 20.4755C40.2154 18.9153 39.1558 17.4454 37.5955 17.1923Z" fill="#F8F7FF"/>
</g>
<defs>
<clipPath id="clip0">
<rect width="40" height="40" fill="white"/>
</clipPath>
</defs>
</svg>
