<svg width="45" height="45" viewBox="0 0 45 45" fill="none" xmlns="http://www.w3.org/2000/svg">
<path d="M35.6866 22.1004H39.1747C39.9633 22.1004 40.6049 21.5231 40.6049 20.8135V17.6745C40.6049 16.9649 39.9633 16.3876 39.1747 16.3876H35.6866C34.8981 16.3876 34.2565 16.9649 34.2565 17.6745V20.8135C34.2565 21.5231 34.8981 22.1004 35.6866 22.1004ZM35.7215 17.7059H39.1399V20.7821H35.7215V17.7059ZM35.6866 30.4501H39.1747C39.9633 30.4501 40.6049 29.8727 40.6049 29.1631V26.0241C40.6049 25.3145 39.9633 24.7372 39.1747 24.7372H35.6866C34.8981 24.7372 34.2565 25.3145 34.2565 26.0241V29.1631C34.2565 29.8727 34.8981 30.4501 35.6866 30.4501ZM35.7215 26.0555H39.1399V29.1317H35.7215V26.0555ZM25.7328 22.1004H29.2209C30.0094 22.1004 30.651 21.5231 30.651 20.8135V17.6745C30.651 16.9649 30.0094 16.3876 29.2209 16.3876H25.7328C24.9442 16.3876 24.3026 16.9649 24.3026 17.6745V20.8135C24.3026 21.5231 24.9442 22.1004 25.7328 22.1004ZM25.7677 17.7059H29.186V20.7821H25.7677V17.7059ZM9.31316 32.6953H5.82507C5.03651 32.6953 4.39493 33.2727 4.39493 33.9823V37.1212C4.39493 37.8308 5.03651 38.4082 5.82507 38.4082H9.31316C10.1017 38.4082 10.7433 37.8308 10.7433 37.1212V33.9823C10.7433 33.2727 10.1017 32.6953 9.31316 32.6953ZM9.27829 37.0898H5.85994V34.0137H9.27829V37.0898ZM9.31316 16.3876H5.82507C5.03651 16.3876 4.39493 16.9649 4.39493 17.6745V20.8135C4.39493 21.5231 5.03651 22.1004 5.82507 22.1004H9.31316C10.1017 22.1004 10.7433 21.5231 10.7433 20.8135V17.6745C10.7433 16.9648 10.1017 16.3876 9.31316 16.3876ZM9.27829 20.7821H5.85994V17.7059H9.27829V20.7821ZM25.7328 30.2543H29.2209C30.0094 30.2543 30.651 29.677 30.651 28.9673V25.8284C30.651 25.1188 30.0094 24.5414 29.2209 24.5414H25.7328C24.9442 24.5414 24.3026 25.1188 24.3026 25.8284V28.9673C24.3026 29.677 24.9442 30.2543 25.7328 30.2543ZM25.7677 25.8598H29.186V28.936H25.7677V25.8598ZM41.3324 3.01236H38.2006V2.00452C38.2006 0.899209 37.2014 0 35.9731 0H35.6367C34.4086 0 33.4093 0.899209 33.4093 2.00452V3.01236H11.5905V2.00452C11.5905 0.899209 10.5912 0 9.36297 0H9.02661C7.79834 0 6.79911 0.899209 6.79911 2.00452V3.01236H3.66741C1.6452 3.01236 0 4.49288 0 6.31266V41.7041C0 43.5215 1.64296 45 3.66252 45H41.3375C43.357 45 45 43.5215 45 41.7041V6.31266C44.9999 4.49288 43.3547 3.01236 41.3324 3.01236ZM34.8743 2.00452C34.8743 1.62615 35.2164 1.31836 35.6368 1.31836H35.9732C36.3937 1.31836 36.7357 1.62615 36.7357 2.00452V3.01236H34.8743V2.00452ZM8.26421 2.00452C8.26421 1.62615 8.60625 1.31836 9.0267 1.31836H9.36307C9.78353 1.31836 10.1256 1.62615 10.1256 2.00452V3.01236H8.26431V2.00452H8.26421ZM43.5349 41.7041C43.5349 42.7946 42.5491 43.6816 41.3374 43.6816H3.66243C2.45067 43.6816 1.46491 42.7946 1.46491 41.7041V41.7C2.07865 42.1161 2.84153 42.3633 3.66741 42.3633H33.3664C34.346 42.3633 35.267 42.02 35.9596 41.3966L43.5349 34.5796V41.7041ZM35.2122 40.2048C35.2696 39.9915 35.3009 39.769 35.3009 39.5401V35.1399C35.3009 34.3102 36.051 33.6351 36.9731 33.6351H41.8626C42.1171 33.6351 42.3643 33.607 42.6013 33.5553L35.2122 40.2048ZM43.5349 12.4325H12.323C11.9184 12.4325 11.5905 12.7276 11.5905 13.0917C11.5905 13.4557 11.9184 13.7508 12.323 13.7508H43.5349V30.812C43.5349 31.6418 42.7847 32.3169 41.8626 32.3169H36.9731C35.2432 32.3169 33.8358 33.5834 33.8358 35.14V39.5401C33.8358 40.3699 33.0857 41.045 32.1637 41.045H3.66741C2.45301 41.045 1.46501 40.1559 1.46501 39.063V13.7508H9.39296C9.79749 13.7508 10.1255 13.4557 10.1255 13.0917C10.1255 12.7276 9.79749 12.4325 9.39296 12.4325H1.46491V6.31266C1.46491 5.21982 2.45291 4.33072 3.66731 4.33072H6.79911V6.26889C6.79911 7.3742 7.79834 8.27341 9.02661 8.27341C9.43114 8.27341 9.75911 7.97827 9.75911 7.61423C9.75911 7.25019 9.43114 6.95505 9.02661 6.95505C8.60615 6.95505 8.26412 6.64726 8.26412 6.26889V4.33072H33.4093V6.26889C33.4093 7.3742 34.4086 8.27341 35.6368 8.27341C36.0414 8.27341 36.3693 7.97827 36.3693 7.61423C36.3693 7.25019 36.0414 6.95505 35.6368 6.95505C35.2164 6.95505 34.8743 6.64726 34.8743 6.26889V4.33072H41.3325C42.5469 4.33072 43.5349 5.21982 43.5349 6.31266V12.4325ZM9.31316 24.5414H5.82507C5.03651 24.5414 4.39493 25.1188 4.39493 25.8284V28.9673C4.39493 29.677 5.03651 30.2543 5.82507 30.2543H9.31316C10.1017 30.2543 10.7433 29.677 10.7433 28.9673V25.8284C10.7433 25.1187 10.1017 24.5414 9.31316 24.5414ZM9.27829 28.936H5.85994V25.8598H9.27829V28.936ZM15.7789 22.1004H19.267C20.0556 22.1004 20.6972 21.5231 20.6972 20.8135V17.6745C20.6972 16.9649 20.0556 16.3876 19.267 16.3876H15.7789C14.9904 16.3876 14.3488 16.9649 14.3488 17.6745V20.8135C14.3488 21.5231 14.9904 22.1004 15.7789 22.1004ZM15.8138 17.7059H19.2322V20.7821H15.8138V17.7059ZM25.7668 37.0898C25.7486 36.7403 25.428 36.462 25.0351 36.462C24.6305 36.462 24.3025 36.7572 24.3025 37.1212C24.3025 37.8308 24.9441 38.4082 25.7327 38.4082H29.2208C30.0093 38.4082 30.6509 37.8308 30.6509 37.1212V33.9823C30.6509 33.2727 30.0093 32.6953 29.2208 32.6953H25.7327C24.9441 32.6953 24.3025 33.2727 24.3025 33.9823V34.8876C24.3025 35.2516 24.6305 35.5467 25.0351 35.5467C25.4396 35.5467 25.7676 35.2516 25.7676 34.8876V34.0137H29.1859V37.0898H25.7668ZM15.7789 30.2543H19.267C20.0556 30.2543 20.6972 29.677 20.6972 28.9673V25.8284C20.6972 25.1188 20.0556 24.5414 19.267 24.5414H15.7789C14.9904 24.5414 14.3488 25.1188 14.3488 25.8284V28.9673C14.3488 29.677 14.9904 30.2543 15.7789 30.2543ZM15.8138 25.8598H19.2322V28.936H15.8138V25.8598ZM15.7789 38.4082H19.267C20.0556 38.4082 20.6972 37.8308 20.6972 37.1212V33.9823C20.6972 33.2727 20.0556 32.6953 19.267 32.6953H15.7789C14.9904 32.6953 14.3488 33.2727 14.3488 33.9823V37.1212C14.3488 37.8308 14.9904 38.4082 15.7789 38.4082ZM15.8138 34.0137H19.2322V37.0898H15.8138V34.0137Z" fill="#363636"/>
</svg>
