<svg width="30" height="30" viewBox="0 0 30 30" fill="none" xmlns="http://www.w3.org/2000/svg">
<g clip-path="url(#clip0)">
<path d="M20.0134 5.00025C20.0089 5.00019 20.0045 4.99954 20 4.99954H13.0174L14.6336 3.38334C15.1218 2.89518 15.1218 2.10366 14.6336 1.6155C14.1455 1.12733 13.3539 1.12733 12.8658 1.6155L9.11562 5.36565C9.0865 5.39477 9.05896 5.42542 9.03282 5.45724C9.02099 5.47165 9.01067 5.48689 8.99954 5.50171C8.98618 5.51953 8.97241 5.53693 8.96005 5.55544C8.94815 5.5732 8.93784 5.59166 8.927 5.60988C8.91698 5.62664 8.90643 5.64305 8.89717 5.66033C8.88727 5.67891 8.87883 5.69801 8.86993 5.71694C8.86143 5.73498 8.85241 5.75274 8.84473 5.7712C8.83711 5.78959 8.83096 5.8084 8.82428 5.82704C8.81713 5.84684 8.80957 5.86641 8.80342 5.88669C8.79779 5.90532 8.79363 5.92431 8.78889 5.94318C8.78367 5.96386 8.77787 5.98425 8.77371 6.00535C8.76938 6.02714 8.7668 6.04918 8.76369 6.07109C8.76106 6.08949 8.7576 6.10754 8.75572 6.12617C8.75174 6.16678 8.74957 6.2075 8.74957 6.24829C8.74957 6.2487 8.74951 6.24911 8.74951 6.24952C8.74951 6.24998 8.74957 6.25039 8.74957 6.25086C8.74963 6.29159 8.75174 6.33231 8.75572 6.37286C8.75754 6.39149 8.76106 6.4096 8.76369 6.428C8.76686 6.44997 8.76938 6.47195 8.77371 6.49374C8.77787 6.51484 8.78367 6.53523 8.78889 6.55592C8.79363 6.57478 8.79774 6.59371 8.80342 6.61234C8.80957 6.63262 8.81719 6.65219 8.82428 6.67205C8.83096 6.69069 8.83711 6.70944 8.84467 6.72778C8.85235 6.74629 8.86137 6.76405 8.86987 6.7821C8.87877 6.80102 8.88721 6.82013 8.89712 6.83864C8.90637 6.85593 8.91692 6.87239 8.927 6.88915C8.93784 6.90732 8.94815 6.92577 8.96005 6.94353C8.97247 6.9621 8.9863 6.97957 8.99966 6.99738C9.01073 7.01214 9.02099 7.02738 9.03282 7.04174C9.05896 7.07361 9.0865 7.10426 9.11562 7.13338L12.8658 10.8835C13.3539 11.3717 14.1455 11.3717 14.6336 10.8835C15.1218 10.3954 15.1218 9.60385 14.6336 9.11569L13.0174 7.49949H19.9894C19.9928 7.49949 19.996 7.50002 19.9993 7.50002C24.1466 7.50002 27.4996 10.853 27.4996 15.0003C27.4996 16.8208 26.7726 18.5336 25.5003 19.807C25.0123 20.2954 25.0126 21.0869 25.501 21.5749C25.9894 22.0629 26.7809 22.0625 27.2689 21.5741C29.004 19.8375 29.9998 17.4917 29.9998 15.0003C29.9998 9.47711 25.535 5.00786 20.0134 5.00025Z" fill="#363636"/>
<path d="M21.0003 24.4981C21.0136 24.4803 21.0273 24.4629 21.0397 24.4444C21.0516 24.4266 21.0619 24.4082 21.0728 24.3899C21.0828 24.3731 21.0933 24.3568 21.1025 24.3396C21.1125 24.3209 21.1209 24.3018 21.1299 24.2827C21.1384 24.2648 21.1474 24.2471 21.155 24.2287C21.1626 24.2102 21.1688 24.1914 21.1755 24.1726C21.1826 24.1529 21.1901 24.1334 21.1962 24.1133C21.2019 24.0945 21.2061 24.0754 21.2108 24.0565C21.216 24.0359 21.2218 24.0156 21.2259 23.9947C21.2303 23.9727 21.2328 23.9505 21.2361 23.9284C21.2386 23.9102 21.2422 23.8923 21.244 23.8738C21.2521 23.7918 21.2521 23.7091 21.244 23.6271C21.2422 23.6086 21.2387 23.5906 21.2361 23.5724C21.2329 23.5503 21.2303 23.5282 21.226 23.5062C21.2218 23.4852 21.2161 23.4649 21.2109 23.4443C21.2061 23.4254 21.202 23.4064 21.1963 23.3876C21.1902 23.3674 21.1826 23.3479 21.1755 23.3282C21.1687 23.3094 21.1626 23.2906 21.155 23.2721C21.1474 23.2537 21.1384 23.2361 21.1299 23.2181C21.1209 23.1991 21.1125 23.1799 21.1025 23.1612C21.0933 23.1441 21.0828 23.1277 21.0728 23.111C21.0619 23.0927 21.0515 23.0742 21.0397 23.0564C21.0273 23.038 21.0136 23.0206 21.0003 23.0029C20.9891 22.988 20.9788 22.9727 20.9669 22.9582C20.9412 22.9268 20.914 22.8966 20.8853 22.8679C20.8849 22.8674 20.8845 22.867 20.8841 22.8666L17.1339 19.1164C16.6458 18.6282 15.8542 18.6282 15.3661 19.1164C14.8779 19.6046 14.8779 20.3961 15.3661 20.8843L16.9823 22.5005H10.0103C10.007 22.5005 10.0038 22.4999 10.0004 22.4999C5.85311 22.4999 2.50012 19.1469 2.50012 14.9996C2.50012 13.1792 3.22718 11.4663 4.49948 10.1929C4.98747 9.70452 4.98712 8.91306 4.49872 8.42508C4.01032 7.93709 3.21886 7.93744 2.73087 8.42584C0.995724 10.1623 0 12.5081 0 14.9995C0 20.5229 4.46479 24.9921 9.98637 24.9998C9.99088 24.9998 9.99527 25.0005 9.99979 25.0005H16.9823L15.3661 26.6167C14.8779 27.1048 14.8779 27.8963 15.3661 28.3845C15.8542 28.8727 16.6458 28.8727 17.1339 28.3845L20.8841 24.6344C20.8843 24.6341 20.8845 24.6339 20.8847 24.6336C20.9136 24.6048 20.9409 24.5744 20.9669 24.5428C20.9788 24.5282 20.9891 24.5129 21.0003 24.4981Z" fill="#363636"/>
</g>
<defs>
<clipPath id="clip0">
<rect width="30" height="30" fill="white"/>
</clipPath>
</defs>
</svg>
