<svg width="28" height="28" viewBox="0 0 28 28" fill="none" xmlns="http://www.w3.org/2000/svg">
<g clip-path="url(#clip0)">
<path d="M14 5.65472C8.6503 5.65472 3.79892 8.58159 0.219086 13.3356C-0.0730285 13.7251 -0.0730285 14.2692 0.219086 14.6587C3.79892 19.4185 8.6503 22.3453 14 22.3453C19.3497 22.3453 24.2011 19.4185 27.7809 14.6644C28.073 14.275 28.073 13.7308 27.7809 13.3413C24.2011 8.58159 19.3497 5.65472 14 5.65472ZM14.3838 19.8767C10.8326 20.1001 7.89997 17.1732 8.12335 13.6163C8.30664 10.6837 10.6836 8.30666 13.6162 8.12338C17.1674 7.89999 20.1 10.8269 19.8766 14.3838C19.6876 17.3107 17.3106 19.6877 14.3838 19.8767ZM14.2062 17.1617C12.2931 17.282 10.7123 15.7069 10.8383 13.7938C10.9357 12.213 12.2187 10.9357 13.7995 10.8326C15.7126 10.7123 17.2934 12.2874 17.1674 14.2005C17.0643 15.7871 15.7813 17.0644 14.2062 17.1617Z" fill="#363636" fill-opacity="0.5"/>
</g>
<defs>
<clipPath id="clip0">
<rect width="28" height="28" fill="white"/>
</clipPath>
</defs>
</svg>
