<svg width="500" height="500" viewBox="0 0 500 500" fill="none" xmlns="http://www.w3.org/2000/svg">
<path d="M495.613 197.083C495.434 197.083 495.26 197.028 495.113 196.926L252.517 27.9755C251.779 27.4638 250.902 27.1903 250.003 27.1918C249.105 27.1933 248.229 27.4698 247.492 27.9841L6.64411 196.924C6.45361 197.058 6.21784 197.11 5.98866 197.07C5.75947 197.03 5.55564 196.9 5.42202 196.71C5.2884 196.519 5.23593 196.284 5.27615 196.054C5.31637 195.825 5.446 195.621 5.6365 195.488L246.485 26.5475C247.516 25.8276 248.743 25.4407 250 25.4386C251.258 25.4365 252.486 25.8195 253.52 26.5359L496.115 195.486C496.269 195.593 496.384 195.746 496.444 195.922C496.504 196.099 496.507 196.291 496.451 196.469C496.395 196.647 496.283 196.803 496.133 196.913C495.982 197.024 495.8 197.083 495.613 197.083L495.613 197.083Z" fill="#F8F7FF"/>
<path d="M20.407 203.072L250.242 32.736L481.821 215.192L262.084 345.455L142.786 318.262L20.407 203.072Z" fill="#4A4A4D"/>
<path d="M152.856 425.913H39.3115C38.6143 425.914 37.9238 425.778 37.2794 425.511C36.635 425.245 36.0494 424.855 35.5561 424.362C35.0628 423.869 34.6715 423.284 34.4045 422.64C34.1375 421.996 34 421.306 34 420.609C34 419.911 34.1375 419.221 34.4045 418.577C34.6715 417.933 35.0628 417.348 35.5561 416.855C36.0494 416.362 36.635 415.972 37.2794 415.706C37.9238 415.439 38.6143 415.303 39.3115 415.304H152.856C153.553 415.303 154.243 415.439 154.888 415.706C155.532 415.972 156.118 416.362 156.611 416.855C157.104 417.348 157.496 417.933 157.763 418.577C158.03 419.221 158.167 419.911 158.167 420.609C158.167 421.306 158.03 421.996 157.763 422.64C157.496 423.284 157.104 423.869 156.611 424.362C156.118 424.855 155.532 425.245 154.888 425.511C154.243 425.778 153.553 425.914 152.856 425.913V425.913Z" fill="#00AEFF"/>
<path d="M80.0486 403.106H39.3115C38.6143 403.107 37.9238 402.971 37.2794 402.704C36.635 402.438 36.0494 402.048 35.5561 401.555C35.0628 401.062 34.6715 400.477 34.4045 399.833C34.1375 399.189 34 398.499 34 397.801C34 397.104 34.1375 396.414 34.4045 395.77C34.6715 395.126 35.0628 394.541 35.5561 394.048C36.0494 393.555 36.635 393.165 37.2794 392.899C37.9238 392.632 38.6143 392.496 39.3115 392.497H80.0486C80.7458 392.496 81.4364 392.632 82.0808 392.899C82.7252 393.165 83.3107 393.555 83.804 394.048C84.2974 394.541 84.6887 395.126 84.9557 395.77C85.2228 396.414 85.3602 397.104 85.3602 397.801C85.3602 398.499 85.2228 399.189 84.9557 399.833C84.6887 400.477 84.2974 401.062 83.804 401.555C83.3107 402.048 82.7252 402.438 82.0808 402.704C81.4364 402.971 80.7458 403.107 80.0486 403.106Z" fill="#00AEFF"/>
<path d="M253.474 297.947C252.611 297.948 251.756 297.78 250.957 297.454L109.211 238.639V54.5392C109.213 52.9112 109.86 51.3505 111.011 50.1994C112.162 49.0482 113.723 48.4007 115.351 48.3988H387.281C388.909 48.4007 390.47 49.0482 391.621 50.1994C392.772 51.3505 393.419 52.9112 393.421 54.5392V238.768L393.155 238.882L256.067 297.425C255.246 297.77 254.364 297.948 253.474 297.947Z" fill="#363636"/>
<path d="M253.474 298.385C252.554 298.386 251.642 298.208 250.79 297.86L108.772 238.932V54.5391C108.774 52.7949 109.468 51.1227 110.701 49.8893C111.935 48.6559 113.607 47.9622 115.351 47.9602H387.281C389.025 47.9622 390.697 48.6559 391.931 49.8893C393.164 51.1227 393.858 52.7949 393.86 54.5391V239.057L256.239 297.828C255.364 298.197 254.424 298.386 253.474 298.385V298.385ZM110.527 237.76L251.459 296.238C252.774 296.771 254.246 296.762 255.554 296.213L392.106 237.899V54.5391C392.104 53.26 391.595 52.0338 390.691 51.1293C389.786 50.2249 388.56 49.7161 387.281 49.7146H115.351C114.072 49.7161 112.846 50.2249 111.941 51.1293C111.037 52.0338 110.528 53.26 110.527 54.5391L110.527 237.76Z" fill="#F8F7FF"/>
<path d="M493.86 195.329H493.684L392.982 238.329L255.202 297.162C254.664 297.389 254.086 297.507 253.502 297.51C252.918 297.513 252.339 297.401 251.798 297.18L109.649 238.206L6.47358 195.399L6.31596 195.329H6.14035C4.51238 195.331 2.9516 195.978 1.80046 197.129C0.649309 198.28 0.00180636 199.841 0 201.469V468.136C0.00180868 469.764 0.649309 471.325 1.80046 472.476C2.9516 473.627 4.51238 474.274 6.14035 474.276H493.86C495.488 474.274 497.048 473.627 498.2 472.476C499.351 471.325 499.998 469.764 500 468.136V201.469C499.998 199.841 499.351 198.28 498.2 197.129C497.048 195.978 495.488 195.331 493.86 195.329V195.329ZM498.246 468.136C498.245 469.299 497.783 470.414 496.96 471.237C496.138 472.059 495.023 472.521 493.86 472.522H6.14035C4.97726 472.521 3.86195 472.059 3.03952 471.237C2.2171 470.414 1.75485 469.299 1.75439 468.136V201.469C1.75598 200.335 2.19593 199.245 2.98226 198.428C3.7686 197.61 4.84044 197.129 5.97374 197.083L109.649 240.101L251.123 298.802C252.654 299.426 254.37 299.416 255.895 298.776L392.982 240.232L494.035 197.083C495.167 197.132 496.236 197.615 497.02 198.432C497.804 199.249 498.243 200.337 498.246 201.469V468.136Z" fill="#F8F7FF"/>
<path d="M252.057 245.743C246.824 245.753 241.73 244.061 237.543 240.922L237.284 240.727L182.625 198.878C180.094 196.939 177.969 194.52 176.373 191.759C174.776 188.998 173.739 185.95 173.321 182.789C172.902 179.628 173.11 176.415 173.934 173.334C174.757 170.253 176.179 167.364 178.118 164.833C180.058 162.302 182.477 160.177 185.238 158.581C187.998 156.984 191.046 155.947 194.208 155.529C197.369 155.11 200.582 155.318 203.663 156.142C206.744 156.965 209.632 158.387 212.164 160.326L247.567 187.473L331.232 78.3623C333.173 75.8316 335.592 73.7078 338.354 72.1124C341.115 70.5169 344.163 69.4809 347.325 69.0635C350.486 68.6462 353.699 68.8557 356.78 69.68C359.86 70.5044 362.748 71.9274 365.279 73.868L364.759 74.5743L365.292 73.8782C370.397 77.8015 373.737 83.5895 374.58 89.9724C375.422 96.3552 373.699 102.812 369.787 107.925L271.377 236.266C269.101 239.223 266.174 241.617 262.824 243.26C259.473 244.904 255.789 245.753 252.057 245.743V245.743Z" fill="#00AEFF"/>
</svg>
