<svg width="45" height="45" viewBox="0 0 45 45" fill="none" xmlns="http://www.w3.org/2000/svg">
<g clip-path="url(#clip0)">
<path d="M40.1513 0H4.84875C2.17495 0 0 2.17495 0 4.84875V40.1513C0 42.8247 2.17495 45 4.84875 45H40.1513C42.8247 45 45 42.8247 45 40.1513V4.84875C45 2.17495 42.8247 0 40.1513 0V0ZM42.3633 40.1513C42.3633 41.3711 41.3711 42.3633 40.1513 42.3633H4.84875C3.62892 42.3633 2.63672 41.3711 2.63672 40.1513V4.84875C2.63672 3.62892 3.62892 2.63672 4.84875 2.63672H40.1513C41.3711 2.63672 42.3633 3.62892 42.3633 4.84875V40.1513Z" fill="#363636"/>
<path d="M15.4537 18.9061C16.6539 18.9061 16.8798 19.6404 16.9224 20.3041C16.9365 20.7418 17.3457 20.8829 17.8401 20.8829C18.4474 20.8829 18.7581 20.7137 18.7581 20.0075C18.7581 18.3128 17.3316 17.2959 15.3829 17.2959C13.5894 17.2959 12.1348 18.1714 12.1348 20.53V24.47C12.1348 26.8283 13.5753 27.7037 15.4396 27.7037C17.3035 27.7037 18.7581 26.8283 18.7581 24.47V22.7894C18.7581 22.4787 18.5463 22.1961 18.1793 22.1961H15.7785C15.4114 22.1961 15.2137 22.5635 15.2137 22.9164C15.2137 23.2838 15.4114 23.6367 15.7785 23.6367H16.9224V24.47C16.9224 25.5714 16.3576 26.0939 15.4396 26.0939C14.5075 26.0939 13.9709 25.5714 13.9709 24.47V20.5297C13.9709 19.4286 14.5075 18.9061 15.4537 18.9061V18.9061Z" fill="#363636"/>
<path d="M22.5417 17.2963C22.0758 17.2963 21.624 17.4655 21.624 17.861V27.0401C21.624 27.4215 22.0762 27.6193 22.5417 27.6193C22.9939 27.6193 23.4598 27.4215 23.4598 27.0401V17.861C23.4598 17.4655 22.9939 17.2963 22.5417 17.2963Z" fill="#363636"/>
<path d="M32.2999 17.2963H27.3712C26.9619 17.2963 26.5664 17.4937 26.5664 17.8751V27.0401C26.5664 27.4215 27.0182 27.6193 27.4841 27.6193C27.9363 27.6193 28.4022 27.4215 28.4022 27.0401V23.1709H30.5627C30.9582 23.1709 31.1274 22.7894 31.1274 22.4646C31.1274 22.0836 30.9297 21.7306 30.5627 21.7306H28.4022V18.9061H32.2999C32.6669 18.9061 32.8647 18.5247 32.8647 18.0869C32.8647 17.7058 32.6951 17.2963 32.2999 17.2963V17.2963Z" fill="#363636"/>
</g>
<defs>
<clipPath id="clip0">
<rect width="45" height="45" fill="white"/>
</clipPath>
</defs>
</svg>
